<svg preserveAspectRatio="none" width="100%" height="100%" overflow="visible" style="display: block;" viewBox="0 0 18 20.251" fill="none" xmlns="http://www.w3.org/2000/svg">
<g id="Group">
<path id="Union" fill-rule="evenodd" clip-rule="evenodd" d="M11.5703 0.930664C11.5702 0.439108 11.1712 0.00026997 10.6797 0H7.31738C6.82582 0.000210417 6.42686 0.439074 6.42676 0.930664V1.60742H7.71484V2.34175C3.35305 2.96539 0 6.71675 0 11.251C0.000165831 16.2214 4.02954 20.251 9 20.251C13.9705 20.251 17.9998 16.2214 18 11.251C18 9.09683 17.2427 7.11956 15.9805 5.57031C15.9874 5.57887 15.9946 5.58726 16.0018 5.59566C16.0101 5.60535 16.0184 5.61505 16.0264 5.625L16.5771 5.07422L17.127 5.62402C17.7598 4.99121 17.7257 4.01826 17.1387 3.43066C17.1196 3.41164 17.0995 3.39388 17.0795 3.37633C17.0738 3.37132 17.0681 3.36633 17.0625 3.36133C17.0571 3.3564 17.0517 3.35139 17.0464 3.34639C17.0369 3.3375 17.0275 3.32863 17.0176 3.32031C17.0145 3.31775 17.0112 3.31543 17.0079 3.31313C17.0049 3.31103 17.0019 3.30893 16.999 3.30664C16.8785 3.20847 16.7476 3.13014 16.6094 3.07324C16.6006 3.0696 16.5918 3.06597 16.583 3.0625C16.5443 3.0474 16.5054 3.03336 16.4658 3.02148C16.4594 3.01954 16.4529 3.01805 16.4464 3.01656C16.4411 3.01535 16.4359 3.01414 16.4307 3.0127C16.396 3.00317 16.3613 2.99437 16.3262 2.9873C16.3068 2.98337 16.2874 2.9804 16.2679 2.97743C16.2639 2.97682 16.2599 2.97621 16.2559 2.97559L16.2506 2.97478C16.2264 2.97105 16.2021 2.96732 16.1777 2.96484C16.1559 2.96262 16.134 2.96142 16.112 2.96021L16.1074 2.95996C16.0996 2.95952 16.0917 2.95892 16.0839 2.95832C16.0702 2.95728 16.0566 2.95624 16.043 2.95605H16.0156C16.0055 2.95611 15.9954 2.95687 15.9854 2.95762C15.9782 2.95816 15.971 2.9587 15.9639 2.95898C15.959 2.95917 15.9541 2.95934 15.9493 2.95952C15.9235 2.96043 15.8978 2.96135 15.8721 2.96387C15.8661 2.96447 15.8601 2.9653 15.8541 2.96614C15.85 2.96671 15.8459 2.96728 15.8418 2.96777C15.8016 2.97252 15.7615 2.97838 15.7217 2.98633C15.7189 2.98689 15.7162 2.98762 15.7135 2.98835C15.711 2.98903 15.7086 2.9897 15.7061 2.99023C15.4206 3.05033 15.1471 3.1917 14.9229 3.41895V3.41992L15.4746 3.97168L14.9492 4.49805C14.956 4.50402 14.9626 4.51023 14.9692 4.51643C14.9752 4.52208 14.9812 4.52773 14.9873 4.5332C13.6985 3.38369 12.0779 2.59738 10.2861 2.34082V1.60742H11.5703V0.930664ZM1.6084 11.3154C1.6084 7.23258 4.91817 3.92304 9.00098 3.92285C13.0839 3.92285 16.3945 7.23247 16.3945 11.3154C16.3945 15.3984 13.0839 18.708 9.00098 18.708C4.9182 18.7078 1.60844 15.3982 1.6084 11.3154ZM9 2.25098C8.84542 2.25098 8.69173 2.25402 8.53906 2.26172C8.69201 2.25371 8.8461 2.24902 9.00098 2.24902C9.11017 2.24903 9.21891 2.25086 9.32715 2.25488L9.46289 2.2627C9.30957 2.25493 9.15525 2.25098 9 2.25098ZM4.82176 10.4634C4.82176 7.56119 7.87437 6.74991 9.00034 9.32133C10.1244 7.07133 13.1789 7.56119 13.1789 10.4634C13.1411 12.2109 11.3253 13.6782 10.1 14.4715C9.42609 14.9078 8.57459 14.9078 7.90065 14.4715C6.67547 13.6782 4.85982 12.2109 4.82176 10.4634Z" fill="var(--fill-0, black)"/>
</g>
</svg>
