<svg preserveAspectRatio="none" width="100%" height="100%" overflow="visible" style="display: block;" viewBox="0 0 11.912 2.58951" fill="none" xmlns="http://www.w3.org/2000/svg">
<g id="Group 5">
<path id="Vector" d="M2.58242 1.23352C2.59522 1.49174 2.53026 1.74786 2.39594 1.96876C2.26162 2.18966 2.06412 2.36518 1.82897 2.47263C1.59382 2.58008 1.33185 2.61452 1.07692 2.57148C0.821996 2.52844 0.585844 2.40991 0.399005 2.23122C0.212165 2.05253 0.0832337 1.8219 0.0288784 1.56914C-0.0254768 1.31639 -0.00275393 1.05314 0.0941098 0.813436C0.190973 0.573735 0.357523 0.368605 0.57222 0.224575C0.786916 0.0805445 1.03989 0.00423621 1.29842 0.0055198C1.4663 -0.010832 1.63573 0.00925 1.79514 0.0643882C1.95455 0.119526 2.10018 0.208424 2.22208 0.325008C2.34398 0.441593 2.43928 0.583118 2.50147 0.739913C2.56366 0.896708 2.59127 1.06508 2.58242 1.23352V1.23352Z" fill="var(--fill-0, black)"/>
<path id="Vector_2" d="M7.24642 1.23352C7.25922 1.49174 7.19426 1.74786 7.05994 1.96876C6.92562 2.18966 6.72812 2.36518 6.49297 2.47263C6.25783 2.58008 5.99585 2.61452 5.74093 2.57148C5.486 2.52844 5.24985 2.40991 5.06301 2.23122C4.87617 2.05253 4.74724 1.8219 4.69288 1.56914C4.63852 1.31639 4.66125 1.05314 4.75811 0.813436C4.85497 0.573735 5.02152 0.368605 5.23622 0.224575C5.45092 0.0805445 5.70389 0.00423621 5.96242 0.0055198C6.1303 -0.010832 6.29974 0.00925 6.45915 0.0643882C6.61856 0.119526 6.76419 0.208424 6.88609 0.325008C7.00799 0.441593 7.10329 0.583118 7.16548 0.739913C7.22766 0.896708 7.25527 1.06508 7.24642 1.23352V1.23352Z" fill="var(--fill-0, black)"/>
<path id="Vector_3" d="M11.9104 1.23352C11.9232 1.49174 11.8583 1.74786 11.7239 1.96876C11.5896 2.18966 11.3921 2.36518 11.157 2.47263C10.9218 2.58008 10.6599 2.61452 10.4049 2.57148C10.15 2.52844 9.91385 2.40991 9.72701 2.23122C9.54017 2.05253 9.41124 1.8219 9.35688 1.56914C9.30253 1.31639 9.32525 1.05314 9.42211 0.813436C9.51898 0.573735 9.68552 0.368605 9.90022 0.224575C10.1149 0.0805445 10.3679 0.00423621 10.6264 0.0055198C10.7943 -0.010832 10.9637 0.00925 11.1231 0.0643882C11.2826 0.119526 11.4282 0.208424 11.5501 0.325008C11.672 0.441593 11.7673 0.583118 11.8295 0.739913C11.8917 0.896708 11.9193 1.06508 11.9104 1.23352V1.23352Z" fill="var(--fill-0, black)"/>
</g>
</svg>
