<svg preserveAspectRatio="none" width="100%" height="100%" overflow="visible" style="display: block;" viewBox="0 0 24 24" fill="none" xmlns="http://www.w3.org/2000/svg">
<g id="comment">
<g id="Union">
<path d="M12 2C17.5228 2 22 6.47715 22 12C22 17.5228 17.5228 22 12 22C10.2736 22 8.64964 21.5621 7.23242 20.792L2 22L3.55078 17.3467C2.56999 15.8 2 13.967 2 12C2 6.47715 6.47715 2 12 2Z" fill="var(--fill-0, white)"/>
<path d="M7.23242 20.792L7.59052 20.133C7.42958 20.0455 7.24219 20.02 7.06371 20.0612L7.23242 20.792ZM2 22L1.28847 21.7629C1.2027 22.0203 1.26261 22.3039 1.44514 22.5046C1.62767 22.7053 1.90437 22.7918 2.16871 22.7308L2 22ZM3.55078 17.3467L4.26231 17.5838C4.33358 17.37 4.30488 17.1354 4.18417 16.945L3.55078 17.3467ZM12 2V2.75C17.1086 2.75 21.25 6.89137 21.25 12H22H22.75C22.75 6.06294 17.9371 1.25 12 1.25V2ZM22 12H21.25C21.25 17.1086 17.1086 21.25 12 21.25V22V22.75C17.9371 22.75 22.75 17.9371 22.75 12H22ZM12 22V21.25C10.4019 21.25 8.9007 20.845 7.59052 20.133L7.23242 20.792L6.87432 21.451C8.39858 22.2793 10.1453 22.75 12 22.75V22ZM7.23242 20.792L7.06371 20.0612L1.83129 21.2692L2 22L2.16871 22.7308L7.40114 21.5228L7.23242 20.792ZM2 22L2.71153 22.2371L4.26231 17.5838L3.55078 17.3467L2.83925 17.1096L1.28847 21.7629L2 22ZM3.55078 17.3467L4.18417 16.945C3.27693 15.5143 2.75 13.8199 2.75 12H2H1.25C1.25 14.114 1.86305 16.0857 2.91739 17.7483L3.55078 17.3467ZM2 12H2.75C2.75 6.89137 6.89137 2.75 12 2.75V2V1.25C6.06294 1.25 1.25 6.06294 1.25 12H2Z" fill="var(--stroke-0, black)"/>
</g>
<path id="Ellipse 86" d="M8.75 11.75C8.75 12.4404 8.19036 13 7.5 13C6.80964 13 6.25 12.4404 6.25 11.75C6.25 11.0596 6.80964 10.5 7.5 10.5C8.19036 10.5 8.75 11.0596 8.75 11.75Z" fill="var(--fill-0, black)"/>
<path id="Ellipse 87" d="M13.25 11.75C13.25 12.4404 12.6904 13 12 13C11.3097 13 10.75 12.4404 10.75 11.75C10.75 11.0596 11.3097 10.5 12 10.5C12.6904 10.5 13.25 11.0596 13.25 11.75Z" fill="var(--fill-0, black)"/>
<path id="Ellipse 88" d="M17.75 11.75C17.75 12.4404 17.1904 13 16.5 13C15.8096 13 15.25 12.4404 15.25 11.75C15.25 11.0596 15.8096 10.5 16.5 10.5C17.1904 10.5 17.75 11.0596 17.75 11.75Z" fill="var(--fill-0, black)"/>
</g>
</svg>
