<svg preserveAspectRatio="none" width="100%" height="100%" overflow="visible" style="display: block;" viewBox="0 0 20.0005 21.7499" fill="none" xmlns="http://www.w3.org/2000/svg">
<g id="Group 48095722">
<path id="Vector 151" d="M0.750193 3.5393L5.75019 20.9997" stroke="var(--stroke-0, black)" stroke-width="1.5" stroke-linecap="round" stroke-linejoin="round"/>
<path id="Rectangle 4441" d="M1.01532 4.50389C5.2505 5.03106 9.02149 0.531054 15.2506 1.03105C16.5214 3.03105 16.2505 5.03106 15.7505 7.03106C17.7505 8.03106 18.7505 9.03106 19.2505 11.0311C13.2505 11.5311 10.2505 16.0311 3.7505 14.0311" stroke="var(--stroke-0, black)" stroke-width="1.5" stroke-linecap="round" stroke-linejoin="round"/>
<path id="Vector" d="M5.66621 6.33715L7.50992 7.3863M7.11264 5.93987L6.06349 7.78358" stroke="var(--stroke-0, black)" stroke-width="1.5" stroke-linecap="round" stroke-linejoin="round"/>
<path id="Vector_2" d="M10.9709 4.88061L12.8146 5.92976M12.4173 4.48333L11.3682 6.32704" stroke="var(--stroke-0, black)" stroke-width="1.5" stroke-linecap="round" stroke-linejoin="round"/>
<path id="Vector_3" d="M7.95607 10.8934L8.31206 10.5206C9.33225 9.45224 10.8582 9.03311 12.281 9.4305L12.7775 9.56917" stroke="var(--stroke-0, black)" stroke-width="1.5" stroke-linecap="round" stroke-linejoin="round"/>
</g>
</svg>
