<svg preserveAspectRatio="none" width="100%" height="100%" overflow="visible" style="display: block;" viewBox="0 0 83.5239 31.6943" fill="none" xmlns="http://www.w3.org/2000/svg">
<g id="c">
<path id="Vector" d="M0 0.00599659V4.29945H2.26474V20.9216C2.26474 20.9216 2.28963 26.0977 4.92768 27.3366C5.06041 27.3933 5.20697 27.3208 5.25951 27.1695C5.27057 27.1348 5.2761 27.1001 5.2761 27.0623V17.2775C5.2761 17.2775 12.0676 14.286 12.8667 10.0776C13.6659 5.87246 11.3707 -0.217818 0 0.00599659ZM5.28163 14.5508V5.20417C5.28163 5.20417 9.08939 5.20417 9.86089 7.99712C10.6324 10.7901 5.28163 14.5508 5.28163 14.5508V14.5508Z" fill="var(--fill-0, black)"/>
<path id="Vector_2" d="M14.1818 12.9813C14.1569 13.8923 14.168 18.6208 14.1818 21.067C14.2344 21.7321 14.5385 24.8087 15.6336 25.4014L15.6889 25.4266C16.878 25.9089 17.2789 20.8526 17.2789 20.8526V11.4398C17.2789 11.4398 14.2205 11.7393 14.1818 12.9813V12.9813Z" fill="var(--fill-0, black)"/>
<path id="Vector_3" d="M14.1818 12.9813C14.1569 13.8923 14.168 18.6208 14.1818 21.067C14.2344 21.7321 14.5385 24.8087 15.6336 25.4014L15.6889 25.4266C16.878 25.9089 17.2789 20.8526 17.2789 20.8526V11.4398C17.2789 11.4398 14.2205 11.7393 14.1818 12.9813Z" fill="var(--fill-0, black)"/>
<path id="Vector_4" d="M16.6485 5.33967C15.6281 5.62338 13.7118 6.38309 13.8251 8.20512C13.98 10.6828 16.9001 9.97672 17.2789 9.56376C17.5582 9.26114 17.4255 7.06083 17.3398 5.90709C17.3149 5.55718 17.0467 5.29554 16.7397 5.32391C16.7065 5.32391 16.6761 5.33022 16.6485 5.33967Z" fill="var(--fill-0, black)"/>
<path id="Vector_5" d="M16.6485 5.33967C15.6281 5.62338 13.7118 6.38309 13.8251 8.20512C13.98 10.6828 16.9001 9.97672 17.2789 9.56376C17.5582 9.26114 17.4255 7.06083 17.3398 5.90709C17.3149 5.55718 17.0467 5.29554 16.7397 5.32391C16.7065 5.32391 16.6761 5.33022 16.6485 5.33967Z" fill="var(--fill-0, black)"/>
<path id="Vector_6" d="M33.8238 0.674643C33.7519 0.110379 32.4025 1.05292 32.4025 1.05292C30.8374 2.32961 30.8457 3.4802 30.8457 3.4802L30.8816 9.43807H28.6445V11.1624H30.8733V20.4428C30.8733 25.1492 33.9096 25.6157 33.9096 25.6157V12.0261H36.1743V8.5964H33.9096L33.8238 0.674643V0.674643Z" fill="var(--fill-0, black)"/>
<path id="Vector_7" d="M33.8238 0.674643C33.7519 0.110379 32.4025 1.05292 32.4025 1.05292C30.8374 2.32961 30.8457 3.4802 30.8457 3.4802L30.8816 9.43807H28.6445V11.1624H30.8733V20.4428C30.8733 25.1492 33.9096 25.6157 33.9096 25.6157V12.0261H36.1743V8.5964H33.9096L33.8238 0.674643V0.674643Z" fill="var(--fill-0, black)"/>
<path id="Vector_8" d="M41.6984 6.72314C40.5204 6.72314 38.0787 7.64992 37.4897 10.7959C36.9007 13.9419 37.4454 19.5152 37.4897 20.4955C37.5339 21.4759 38.098 22.2829 38.8032 22.4058C38.8032 22.4058 45.5946 23.2822 45.9071 21.3214C46.2195 19.3607 45.4536 9.96371 44.9558 8.60192C44.4581 7.24012 42.8819 6.72314 41.6984 6.72314ZM41.7647 19.6759C40.2024 19.6759 39.9093 18.6388 39.9093 17.9706V11.067C39.9093 11.067 39.6438 8.84149 41.7316 8.61768C41.7316 8.61768 42.9538 8.42854 42.9538 9.31749V17.939C42.9538 17.939 43.3271 19.6759 41.7647 19.6759V19.6759Z" fill="var(--fill-0, black)"/>
<path id="Vector_9" d="M41.6984 6.72314C40.5204 6.72314 38.0787 7.64992 37.4897 10.7959C36.9007 13.9419 37.4454 19.5152 37.4897 20.4955C37.5339 21.4759 38.098 22.2829 38.8032 22.4058C38.8032 22.4058 45.5946 23.2822 45.9071 21.3214C46.2195 19.3607 45.4536 9.96371 44.9558 8.60192C44.4581 7.24012 42.8819 6.72314 41.6984 6.72314ZM41.7647 19.6759C40.2024 19.6759 39.9093 18.6388 39.9093 17.9706V11.067C39.9093 11.067 39.6438 8.84149 41.7316 8.61768C41.7316 8.61768 42.9538 8.42854 42.9538 9.31749V17.939C42.9538 17.939 43.3271 19.6759 41.7647 19.6759V19.6759Z" fill="var(--fill-0, black)"/>
<path id="Vector_10" d="M81.0874 8.06668C80.8358 8.68453 80.1278 8.38822 80.1278 8.38822C80.1278 8.38822 77.2077 6.03344 75.6094 8.9777C74.0084 11.922 74.6775 17.8641 75.4546 21.0385C76.2316 24.2128 79.7905 23.803 79.7905 23.803C79.7905 23.803 80.1002 25.1585 80.0477 27.2737C80.0449 27.3935 80.0311 27.5133 80.0089 27.6299V27.6552C80.0034 27.6835 79.9951 27.7088 79.9868 27.7371L79.9619 27.8096C79.9564 27.8254 79.9481 27.8443 79.9398 27.8601C79.9288 27.8884 79.9149 27.9168 79.8983 27.942C79.6329 28.4149 78.7563 29.0989 76.0353 27.4881C75.9413 27.4313 75.8251 27.4755 75.7781 27.5827C75.7588 27.6236 75.7532 27.6678 75.7588 27.7119C75.8777 28.6765 76.392 31.0313 78.607 31.5703C78.6484 31.5798 78.6899 31.5924 78.7397 31.5987L78.8918 31.6271L78.983 31.6428C79.3232 31.6933 79.6688 31.7059 80.0117 31.6838C81.5603 31.5956 82.4368 30.6688 82.929 29.7641C83.3245 29.017 83.5319 28.1564 83.5236 27.2832V6.03028C82.1244 6.23834 81.339 7.44567 81.0874 8.06668V8.06668ZM79.3038 21.5239C77.9046 21.5239 77.9958 19.6168 77.9488 18.8665C77.9018 18.1163 77.4815 12.6438 77.9488 11.6256C78.4162 10.6074 80.515 9.65229 80.515 11.3577V19.4465C80.515 19.4465 80.7058 21.5239 79.3038 21.5239Z" fill="var(--fill-0, black)"/>
<path id="Vector_11" d="M81.0874 8.06668C80.8358 8.68453 80.1278 8.38822 80.1278 8.38822C80.1278 8.38822 77.2077 6.03344 75.6094 8.9777C74.0084 11.922 74.6775 17.8641 75.4546 21.0385C76.2316 24.2128 79.7905 23.803 79.7905 23.803C79.7905 23.803 80.1002 25.1585 80.0477 27.2737C80.0449 27.3935 80.0311 27.5133 80.0089 27.6299V27.6552C80.0034 27.6835 79.9951 27.7088 79.9868 27.7371L79.9619 27.8096C79.9564 27.8254 79.9481 27.8443 79.9398 27.8601C79.9288 27.8884 79.9149 27.9168 79.8983 27.942C79.6329 28.4149 78.7563 29.0989 76.0353 27.4881C75.9413 27.4313 75.8251 27.4755 75.7781 27.5827C75.7588 27.6236 75.7532 27.6678 75.7588 27.7119C75.8777 28.6765 76.392 31.0313 78.607 31.5703C78.6484 31.5798 78.6899 31.5924 78.7397 31.5987L78.8918 31.6271L78.983 31.6428C79.3232 31.6933 79.6688 31.7059 80.0117 31.6838C81.5603 31.5956 82.4368 30.6688 82.929 29.7641C83.3245 29.017 83.5319 28.1564 83.5236 27.2832V6.03028C82.1244 6.23834 81.339 7.44567 81.0874 8.06668V8.06668ZM79.3038 21.5239C77.9046 21.5239 77.9958 19.6168 77.9488 18.8665C77.9018 18.1163 77.4815 12.6438 77.9488 11.6256C78.4162 10.6074 80.515 9.65229 80.515 11.3577V19.4465C80.515 19.4465 80.7058 21.5239 79.3038 21.5239Z" fill="var(--fill-0, black)"/>
<path id="Vector_12" d="M59.551 5.24198C59.1307 5.09382 58.6855 5.07176 58.2569 5.17263C58.1214 5.201 57.9914 5.24828 57.8642 5.31448C57.4577 5.51623 57.112 5.84722 56.8632 6.26333C56.7415 6.46508 56.5728 6.62584 56.3793 6.72987C56.1636 6.84335 55.9009 6.89694 55.6907 6.66682C55.2732 6.21289 54.6261 5.3397 54.2058 5.32394C53.9486 5.22622 53.6804 5.17263 53.4094 5.16317C52.3337 5.10328 51.6949 6.2255 51.5096 6.60378C51.4405 6.71726 51.3465 6.80237 51.2359 6.85596C51.1197 6.88748 51.0008 6.90325 50.8819 6.9064H50.8736C50.6137 6.87487 50.3897 6.69204 50.2763 6.42409C49.9141 5.53514 49.4689 4.9961 49.0182 4.67772C48.772 4.47912 48.4872 4.35303 48.1886 4.3089C47.7047 4.20802 47.2041 4.26161 46.7451 4.46021L48.0641 21.2147C48.0641 21.2147 48.1969 25.1614 50.4035 26.3561C50.6828 26.5043 51.0119 26.3656 51.1419 26.0504C51.1751 25.9652 51.1944 25.8738 51.1944 25.7793V10.1722C51.1944 10.1722 51.1585 8.56766 52.154 8.59288C53.1494 8.6181 53.4426 9.82859 53.4426 10.4212V23.9604C53.4426 23.9604 53.5698 24.9597 55.0243 24.9597C56.4788 24.9597 56.5258 23.8532 56.5258 23.5947V10.8625C56.5258 10.8625 56.4816 8.65593 57.6817 8.59919C58.8846 8.54245 58.7767 10.2541 58.7767 10.5568C58.7767 10.8216 58.2513 21.4858 58.0218 24.9281C57.9997 25.278 58.2264 25.5807 58.5334 25.6059C58.6772 25.6185 58.821 25.5649 58.9316 25.4609C60.057 24.3544 61.7494 20.7545 61.8683 9.08464C61.8655 9.08464 61.6664 5.7495 59.551 5.24198V5.24198Z" fill="var(--fill-0, black)"/>
<path id="Vector_13" d="M59.551 5.24198C59.1307 5.09382 58.6855 5.07176 58.2569 5.17263C58.1214 5.201 57.9914 5.24828 57.8642 5.31448C57.4577 5.51623 57.112 5.84722 56.8632 6.26333C56.7415 6.46508 56.5728 6.62584 56.3793 6.72987C56.1636 6.84335 55.9009 6.89694 55.6907 6.66682C55.2732 6.21289 54.6261 5.3397 54.2058 5.32394C53.9486 5.22622 53.6804 5.17263 53.4094 5.16317C52.3337 5.10328 51.6949 6.2255 51.5096 6.60378C51.4405 6.71726 51.3465 6.80237 51.2359 6.85596C51.1197 6.88748 51.0008 6.90325 50.8819 6.9064H50.8736C50.6137 6.87487 50.3897 6.69204 50.2763 6.42409C49.9141 5.53514 49.4689 4.9961 49.0182 4.67772C48.772 4.47912 48.4872 4.35303 48.1886 4.3089C47.7047 4.20802 47.2041 4.26161 46.7451 4.46021L48.0641 21.2147C48.0641 21.2147 48.1969 25.1614 50.4035 26.3561C50.6828 26.5043 51.0119 26.3656 51.1419 26.0504C51.1751 25.9652 51.1944 25.8738 51.1944 25.7793V10.1722C51.1944 10.1722 51.1585 8.56766 52.154 8.59288C53.1494 8.6181 53.4426 9.82859 53.4426 10.4212V23.9604C53.4426 23.9604 53.5698 24.9597 55.0243 24.9597C56.4788 24.9597 56.5258 23.8532 56.5258 23.5947V10.8625C56.5258 10.8625 56.4816 8.65593 57.6817 8.59919C58.8846 8.54245 58.7767 10.2541 58.7767 10.5568C58.7767 10.8216 58.2513 21.4858 58.0218 24.9281C57.9997 25.278 58.2264 25.5807 58.5334 25.6059C58.6772 25.6185 58.821 25.5649 58.9316 25.4609C60.057 24.3544 61.7494 20.7545 61.8683 9.08464C61.8655 9.08464 61.6664 5.7495 59.551 5.24198Z" fill="var(--fill-0, black)"/>
<path id="Vector_14" d="M79.9833 27.76C79.9937 27.7246 80.0041 27.6932 80.011 27.6579C80.0006 27.6932 79.9902 27.7285 79.9833 27.76Z" fill="var(--fill-0, black)"/>
<path id="Vector_15" d="M79.9833 27.76C79.9937 27.7246 80.0041 27.6932 80.011 27.6579C80.0006 27.6932 79.9902 27.7285 79.9833 27.76Z" fill="var(--fill-0, black)"/>
<path id="Vector_16" d="M67.6167 5.80011C62.8908 5.29889 63.2586 12.1268 63.2586 12.1268C63.2586 12.1268 63.3278 12.9559 65.3879 12.8865C65.5261 12.8865 65.6644 12.8644 65.7999 12.8329C66.0128 12.7762 66.1594 12.5555 66.1511 12.3065C66.1096 10.4844 66.4608 9.50723 66.8313 8.98079C66.9585 8.76959 67.1327 8.60251 67.3374 8.49533C67.3457 8.48903 67.3567 8.48272 67.365 8.47957C67.4176 8.44805 67.4701 8.42598 67.5282 8.40707H67.542C67.542 8.40707 67.5613 8.40076 67.5724 8.39761H67.5945C68.0093 8.28413 68.4435 8.32826 68.8334 8.52371C69.9284 9.03753 70.2741 9.92333 69.9892 14.677H65.3298C65.3298 14.677 63.231 14.9796 63.2642 18.3684C63.2918 21.2527 65.1445 23.182 66.8092 23.494C66.8092 23.494 67.094 23.5193 67.5309 23.5287C67.2904 23.5539 67.0498 23.5445 66.8092 23.4972C66.87 23.5098 66.9309 23.5161 66.9917 23.5256C67.083 23.535 69.5579 23.8534 70.6888 23.2229C70.8354 23.1378 71.0124 23.1788 71.1175 23.327C71.2281 23.5066 71.311 23.7084 71.3608 23.9196C71.4852 24.3987 71.6899 24.8495 71.9636 25.2404C72.0936 25.4579 72.265 25.6345 72.4697 25.7542C72.6245 25.6534 72.8485 25.3413 72.901 24.3704C72.901 24.2916 72.9066 24.2065 72.9093 24.1182C72.9425 22.3371 72.9093 10.8312 72.9093 10.8312C72.9093 10.8312 72.3425 6.30132 67.6167 5.80011V5.80011ZM70.0694 18.9831C70.0473 19.4969 69.9063 20.3985 69.2233 20.5939C68.9606 20.6664 68.6923 20.7042 68.4241 20.7105C68.0785 20.7326 67.7328 20.7326 67.3871 20.7105C66.5216 20.5908 66.3751 19.7459 66.3502 19.3992C66.3446 18.9452 66.3502 18.2833 66.3502 17.6938C66.3502 17.6938 66.5244 16.3288 67.7798 16.3288H69.4168C69.7763 16.3288 70.0694 16.663 70.0694 17.0728V18.9831V18.9831Z" fill="var(--fill-0, black)"/>
<path id="Vector_17" d="M67.6167 5.80011C62.8908 5.29889 63.2586 12.1268 63.2586 12.1268C63.2586 12.1268 63.3278 12.9559 65.3879 12.8865C65.5261 12.8865 65.6644 12.8644 65.7999 12.8329C66.0128 12.7762 66.1594 12.5555 66.1511 12.3065C66.1096 10.4844 66.4608 9.50723 66.8313 8.98079C66.9585 8.76959 67.1327 8.60251 67.3374 8.49533C67.3457 8.48903 67.3567 8.48272 67.365 8.47957C67.4176 8.44805 67.4701 8.42598 67.5282 8.40707H67.542C67.542 8.40707 67.5613 8.40076 67.5724 8.39761H67.5945C68.0093 8.28413 68.4435 8.32826 68.8334 8.52371C69.9284 9.03753 70.2741 9.92333 69.9892 14.677H65.3298C65.3298 14.677 63.231 14.9796 63.2642 18.3684C63.2918 21.2527 65.1445 23.182 66.8092 23.494C66.8092 23.494 67.094 23.5193 67.5309 23.5287C67.2904 23.5539 67.0498 23.5445 66.8092 23.4972C66.87 23.5098 66.9309 23.5161 66.9917 23.5256C67.083 23.535 69.5579 23.8534 70.6888 23.2229C70.8354 23.1378 71.0124 23.1788 71.1175 23.327C71.2281 23.5066 71.311 23.7084 71.3608 23.9196C71.4852 24.3987 71.6899 24.8495 71.9636 25.2404C72.0936 25.4579 72.265 25.6345 72.4697 25.7542C72.6245 25.6534 72.8485 25.3413 72.901 24.3704C72.901 24.2916 72.9066 24.2065 72.9093 24.1182C72.9425 22.3371 72.9093 10.8312 72.9093 10.8312C72.9093 10.8312 72.3425 6.30132 67.6167 5.80011V5.80011ZM70.0694 18.9831C70.0473 19.4969 69.9063 20.3985 69.2233 20.5939C68.9606 20.6664 68.6923 20.7042 68.4241 20.7105C68.0785 20.7326 67.7328 20.7326 67.3871 20.7105C66.5216 20.5908 66.3751 19.7459 66.3502 19.3992C66.3446 18.9452 66.3502 18.2833 66.3502 17.6938C66.3502 17.6938 66.5244 16.3288 67.7798 16.3288H69.4168C69.7763 16.3288 70.0694 16.663 70.0694 17.0728V18.9831V18.9831Z" fill="var(--fill-0, black)"/>
<path id="Vector_18" d="M67.5313 23.5109C67.0944 23.5045 66.8096 23.4755 66.8096 23.4755C67.0474 23.527 67.288 23.5367 67.5313 23.5109Z" fill="var(--fill-0, black)"/>
<path id="Vector_19" d="M67.5313 23.5109C67.0944 23.5045 66.8096 23.4755 66.8096 23.4755C67.0474 23.527 67.288 23.5367 67.5313 23.5109Z" fill="var(--fill-0, black)"/>
<path id="Vector_20" d="M67.5291 8.40408C67.4739 8.42296 67.4187 8.44814 67.3663 8.47646C67.4187 8.44814 67.4712 8.42296 67.5291 8.40408Z" fill="var(--fill-0, black)"/>
<path id="Vector_21" d="M67.5291 8.40408C67.4739 8.42296 67.4187 8.44814 67.3663 8.47646C67.4187 8.44814 67.4712 8.42296 67.5291 8.40408Z" fill="var(--fill-0, black)"/>
<path id="Vector_22" d="M25.5348 13.1481L25.5431 13.167C25.615 13.2931 25.7007 13.4097 25.7947 13.5137C25.8141 13.5358 25.8307 13.5547 25.8528 13.5736L25.9108 13.6272C26.0215 13.7249 26.1431 13.8069 26.2703 13.8699C26.3643 13.9141 26.475 13.8951 26.5551 13.8195C26.616 13.7564 26.6768 13.6934 26.7349 13.6272C28.3692 11.7673 27.8272 8.32817 27.7802 8.05076V8.03185C27.1137 5.58566 25.1919 3.67851 22.5787 3.47676C19.089 3.21197 19.1885 10.6294 19.1885 12.9337C19.1885 15.238 18.8843 23.9195 23.6129 26.1639C23.6129 26.1639 26.1321 27.1821 26.8317 23.7808C27.534 20.3795 27.299 17.949 26.746 18.1161C26.1929 18.2832 25.0785 19.8467 24.4342 21.7507C24.083 22.7847 23.5825 22.9076 23.1954 22.7122C22.764 22.4505 22.6396 21.861 22.6036 21.4796C22.5317 19.355 22.258 10.3456 22.7529 8.65601C23.2977 6.78984 24.3347 6.14677 24.7494 7.58422C24.8241 7.91837 24.8601 8.26197 24.8545 8.60557V9.3905C24.8656 10.3961 24.9845 12.0889 25.5348 13.1481V13.1481Z" fill="var(--fill-0, black)"/>
<path id="Vector_23" d="M25.5348 13.1481L25.5431 13.167C25.615 13.2931 25.7007 13.4097 25.7947 13.5137C25.8141 13.5358 25.8307 13.5547 25.8528 13.5736L25.9108 13.6272C26.0215 13.7249 26.1431 13.8069 26.2703 13.8699C26.3643 13.9141 26.475 13.8951 26.5551 13.8195C26.616 13.7564 26.6768 13.6934 26.7349 13.6272C28.3692 11.7673 27.8272 8.32817 27.7802 8.05076V8.03185C27.1137 5.58566 25.1919 3.67851 22.5787 3.47676C19.089 3.21197 19.1885 10.6294 19.1885 12.9337C19.1885 15.238 18.8843 23.9195 23.6129 26.1639C23.6129 26.1639 26.1321 27.1821 26.8317 23.7808C27.534 20.3795 27.299 17.949 26.746 18.1161C26.1929 18.2832 25.0785 19.8467 24.4342 21.7507C24.083 22.7847 23.5825 22.9076 23.1954 22.7122C22.764 22.4505 22.6396 21.861 22.6036 21.4796C22.5317 19.355 22.258 10.3456 22.7529 8.65601C23.2977 6.78984 24.3347 6.14677 24.7494 7.58422C24.8241 7.91837 24.8601 8.26197 24.8545 8.60557V9.3905C24.8656 10.3961 24.9845 12.0889 25.5348 13.1481V13.1481Z" fill="var(--fill-0, black)"/>
</g>
</svg>
