<svg preserveAspectRatio="none" width="100%" height="100%" overflow="visible" style="display: block;" viewBox="0 0 24 24" fill="none" xmlns="http://www.w3.org/2000/svg">
<g id="clarity:cog-line" clip-path="url(#clip0_0_137)">
<path id="Vector" d="M12.0667 7.33333C9.46667 7.33333 7.4 9.4 7.4 12C7.4 14.6 9.46667 16.6667 12.0667 16.6667C14.6667 16.6667 16.7333 14.6 16.7333 12C16.7333 9.4 14.6667 7.33333 12.0667 7.33333ZM12.0667 15.3333C10.2 15.3333 8.73333 13.8667 8.73333 12C8.73333 10.1333 10.2 8.66667 12.0667 8.66667C13.9333 8.66667 15.4 10.1333 15.4 12C15.4 13.8667 13.9333 15.3333 12.0667 15.3333Z" fill="var(--fill-0, black)"/>
<path id="Vector_2" d="M21.8667 9.8L20 9.2L19.6 8.2L20.5333 6.46667C20.7333 6.06667 20.6667 5.53333 20.3333 5.2L18.7333 3.6C18.4 3.26667 17.8667 3.2 17.4667 3.4L15.7333 4.33333L14.7333 3.93333L14.1333 2.06667C14 1.66667 13.6 1.33333 13.1333 1.33333H10.8667C10.4 1.33333 10 1.66667 9.93333 2.13333L9.33333 4C8.93333 4.06667 8.6 4.2 8.26667 4.4L6.53333 3.46667C6.13333 3.26667 5.6 3.33333 5.26667 3.66667L3.66667 5.26667C3.33333 5.6 3.26667 6.13333 3.46667 6.53333L4.33333 8.2C4.2 8.53333 4.06667 8.93333 3.93333 9.26667L2.06667 9.86667C1.66667 10 1.33333 10.4 1.33333 10.8667V13.1333C1.33333 13.6 1.66667 14 2.13333 14.1333L4 14.7333L4.4 15.7333L3.46667 17.4667C3.26667 17.8667 3.33333 18.4 3.66667 18.7333L5.26667 20.3333C5.6 20.6667 6.13333 20.7333 6.53333 20.5333L8.26667 19.6L9.26667 20L9.86667 21.9333C10 22.3333 10.4 22.6667 10.8667 22.6667H13.1333C13.6 22.6667 14 22.3333 14.1333 21.9333L14.7333 20L15.7333 19.6L17.4667 20.5333C17.8667 20.7333 18.4 20.6667 18.7333 20.3333L20.3333 18.7333C20.6667 18.4 20.7333 17.8667 20.5333 17.4667L19.6 15.7333L20 14.7333L21.9333 14.1333C22.3333 14 22.6667 13.6 22.6667 13.1333V10.8667C22.6667 10.4 22.3333 9.93333 21.8667 9.8ZM21.3333 12.9333L18.9333 13.6667L18.8667 14L18.2667 15.4L18.0667 15.7333L19.2667 17.9333L17.9333 19.2667L15.7333 18.0667L15.4 18.2667C14.9333 18.5333 14.4667 18.7333 14 18.8667L13.6667 18.9333L12.9333 21.3333H11.0667L10.3333 18.9333L10 18.8667L8.6 18.2667L8.26667 18.0667L6.06667 19.2667L4.73333 17.9333L5.93333 15.7333L5.73333 15.4C5.46667 14.9333 5.26667 14.4667 5.13333 14L5.06667 13.6667L2.66667 12.9333V11.0667L4.93333 10.4L5.06667 10.0667C5.2 9.53333 5.4 9.06667 5.66667 8.6L5.86667 8.26667L4.73333 6.06667L6.06667 4.73333L8.2 5.93333L8.53333 5.73333C9 5.46667 9.46667 5.26667 10 5.13333L10.3333 5L11.0667 2.66667H12.9333L13.6667 5L14 5.13333C14.4667 5.26667 14.9333 5.46667 15.4 5.73333L15.7333 5.93333L17.9333 4.73333L19.2667 6.06667L18.0667 8.26667L18.2667 8.6C18.5333 9.06667 18.7333 9.53333 18.8667 10L18.9333 10.3333L21.3333 11.0667V12.9333Z" fill="var(--fill-0, black)"/>
<g id="Vector_3">
</g>
</g>
<defs>
<clipPath id="clip0_0_137">
<rect width="24" height="24" fill="white"/>
</clipPath>
</defs>
</svg>
