<svg preserveAspectRatio="none" width="100%" height="100%" overflow="visible" style="display: block;" viewBox="0 0 12 14.3749" fill="none" xmlns="http://www.w3.org/2000/svg">
<path id="Music Icon" fill-rule="evenodd" clip-rule="evenodd" d="M4.88889 11.7027V3.00637L10.6667 1.80848V9.95193H8.96293C7.98681 9.95193 7.11111 10.6328 7.11111 11.7027C7.11111 12.7726 7.98681 13.4535 8.96293 13.4535H10.1482C11.1243 13.4535 12 12.7726 12 11.7027V10.7813V0.829521C12 0.317052 11.63 -0.0727593 11.2237 0.0114888L4.11262 1.48582C3.79116 1.55247 3.55556 1.89845 3.55556 2.30385V10.8734H1.85185C0.875698 10.8734 0 11.5543 0 12.6242C0 13.6941 0.875698 14.3749 1.85185 14.3749H3.03704C4.01319 14.3749 4.88889 13.6941 4.88889 12.6242V12.2556V11.7027Z" fill="var(--fill-0, white)"/>
</svg>
