<svg preserveAspectRatio="none" width="100%" height="100%" overflow="visible" style="display: block;" viewBox="0 0 24 24" fill="none" xmlns="http://www.w3.org/2000/svg">
<g id="Video">
<path id="Vector" d="M9.14286 16.1429C7.95939 16.1429 7 15.1835 7 14C7 12.8165 7.95939 11.8571 9.14286 11.8571C11.6429 11.8571 12.3571 16.1429 14.8571 16.1429C16.0406 16.1429 17 15.1835 17 14C17 12.8165 16.0406 11.8571 14.8571 11.8571C12.3571 11.8571 11.6429 16.1429 9.14286 16.1429Z" stroke="var(--stroke-0, black)" stroke-width="2" stroke-linecap="round" stroke-linejoin="round"/>
<path id="Rectangle 4439" d="M3.5 9C3.5 6.79086 5.29086 5 7.5 5H16.5C18.7091 5 20.5 6.79086 20.5 9V18C20.5 20.2091 18.7091 22 16.5 22H7.5C5.29086 22 3.5 20.2091 3.5 18V9Z" stroke="var(--stroke-0, black)" stroke-width="2" stroke-linecap="round" stroke-linejoin="round"/>
<path id="Vector 150" d="M9.5 2L12 5L14.5 2" stroke="var(--stroke-0, black)" stroke-width="2" stroke-linecap="round" stroke-linejoin="round"/>
</g>
</svg>
