<svg preserveAspectRatio="none" width="100%" height="100%" overflow="visible" style="display: block;" viewBox="0 0 24 24" fill="none" xmlns="http://www.w3.org/2000/svg">
<g id="Accueil">
<path id="Vector" d="M9 21V17C9 15.3431 10.3431 14 12 14C13.6569 14 15 15.3431 15 17V21C15 21.5523 15.4477 22 16 22H21C21.5523 22 22 21.5523 22 21V11.9293C22 11.6552 21.8875 11.3931 21.6887 11.2043L12.6887 2.65431C12.3028 2.28764 11.6972 2.28764 11.3113 2.65431L2.31125 11.2043C2.11252 11.3931 2 11.6552 2 11.9293V21C2 21.5523 2.44772 22 3 22H8C8.55228 22 9 21.5523 9 21Z" stroke="var(--stroke-0, black)" stroke-width="2" stroke-linecap="round" stroke-linejoin="round"/>
<path id="Vector_2" d="M19 8.5V4.5" stroke="var(--stroke-0, black)" stroke-width="2" stroke-linecap="round" stroke-linejoin="round"/>
</g>
</svg>
