<svg preserveAspectRatio="none" width="100%" height="100%" overflow="visible" style="display: block;" viewBox="0 0 24 24" fill="none" xmlns="http://www.w3.org/2000/svg">
<g id="Marketplace 1">
<path id="Rectangle 4439" d="M4 6H20V20C20 21.1046 19.1046 22 18 22H6C4.89543 22 4 21.1046 4 20V6Z" stroke="var(--stroke-0, black)" stroke-width="2" stroke-linecap="round" stroke-linejoin="round"/>
<path id="Vector" d="M9.5 14.5H11.75C12.7165 14.5 13.5 13.7165 13.5 12.75C13.5 11.7835 12.7165 11 11.75 11H9.5V14.5ZM9.5 14.5H12.75C13.7165 14.5 14.5 15.2835 14.5 16.25C14.5 17.2165 13.7165 18 12.75 18H9.5V14.5Z" stroke="var(--stroke-0, black)" stroke-width="2" stroke-linecap="round" stroke-linejoin="round"/>
<path id="Rectangle 4440" d="M15 7.5V5C15 3.34315 13.6569 2 12 2C10.3431 2 9 3.34315 9 5L9 7.5" stroke="var(--stroke-0, black)" stroke-width="2" stroke-linecap="round" stroke-linejoin="round"/>
</g>
</svg>
