<svg preserveAspectRatio="none" width="100%" height="100%" overflow="visible" style="display: block;" viewBox="0 0 14.2222 14.2222" fill="none" xmlns="http://www.w3.org/2000/svg">
<g id="ic:round-add">
<rect x="0.444444" y="0.444444" width="13.3333" height="13.3333" rx="6.66667" fill="var(--fill-0, black)"/>
<rect x="0.444444" y="0.444444" width="13.3333" height="13.3333" rx="6.66667" stroke="var(--stroke-0, white)" stroke-width="0.888889"/>
<path id="Vector" d="M10.667 7.70368H7.70407V10.6666C7.70407 10.9926 7.4374 11.2592 7.11147 11.2592C6.78555 11.2592 6.51888 10.9926 6.51888 10.6666V7.70368H3.55592C3.22999 7.70368 2.96332 7.43701 2.96332 7.11109C2.96332 6.78516 3.22999 6.51849 3.55592 6.51849H6.51888V3.55553C6.51888 3.2296 6.78555 2.96294 7.11147 2.96294C7.4374 2.96294 7.70407 3.2296 7.70407 3.55553V6.51849H10.667C10.993 6.51849 11.2596 6.78516 11.2596 7.11109C11.2596 7.43701 10.993 7.70368 10.667 7.70368Z" fill="var(--fill-0, white)"/>
</g>
</svg>
