<svg preserveAspectRatio="none" width="100%" height="100%" overflow="visible" style="display: block;" viewBox="0 0 24 24" fill="none" xmlns="http://www.w3.org/2000/svg">
<g id="material-symbols-light:slow-motion-video">
<path id="Vector" d="M4.942 17.608C4.37333 16.8747 3.939 16.1447 3.639 15.418C3.339 14.6907 3.139 13.8847 3.039 13H4.05C4.15 13.7333 4.33333 14.4293 4.6 15.088C4.86667 15.7467 5.21667 16.3507 5.65 16.9L4.942 17.608ZM3.04 11C3.14733 10.1153 3.349 9.31267 3.645 8.592C3.941 7.87133 4.37367 7.14467 4.943 6.412L5.651 7.119C5.217 7.669 4.86667 8.27 4.6 8.922C4.33333 9.574 4.15 10.2667 4.05 11H3.04ZM10.951 20.95C9.98967 20.8113 9.16567 20.592 8.479 20.292C7.79233 19.992 7.08 19.568 6.342 19.02L7.05 18.301C7.59467 18.721 8.19433 19.0763 8.849 19.367C9.50367 19.6563 10.204 19.851 10.95 19.951L10.951 20.95ZM7.1 5.68L6.38 4.962C7.118 4.41333 7.83 3.992 8.516 3.698C9.20267 3.40467 10.0307 3.18867 11 3.05V4.05C10.25 4.15 9.54667 4.34167 8.89 4.625C8.23333 4.90833 7.63667 5.26033 7.1 5.681M10 15.577V8.423L15.577 12L10 15.577ZM13 20.95V19.95C15.0167 19.6667 16.6877 18.775 18.013 17.275C19.3383 15.775 20.0007 14.0167 20 12C19.9993 9.98333 19.337 8.225 18.013 6.725C16.689 5.225 15.018 4.33333 13 4.05V3.05C15.2973 3.29467 17.205 4.269 18.723 5.973C20.241 7.677 21 9.686 21 12C21 14.314 20.241 16.323 18.723 18.027C17.205 19.731 15.2973 20.7053 13 20.95Z" fill="url(#paint0_linear_0_183)"/>
</g>
<defs>
<linearGradient id="paint0_linear_0_183" x1="3.0388" y1="11.9978" x2="21.001" y2="11.9978" gradientUnits="userSpaceOnUse">
<stop stop-color="#1984FF"/>
<stop offset="1" stop-color="#1CB1FE"/>
</linearGradient>
</defs>
</svg>
