<svg preserveAspectRatio="none" width="100%" height="100%" overflow="visible" style="display: block;" viewBox="0 0 18 18" fill="none" xmlns="http://www.w3.org/2000/svg">
<g id="photo gray">
<rect width="18" height="18" fill="white"/>
<path id="Rectangle 4439" d="M3.5 16.5C2.39543 16.5 1.5 15.6046 1.5 14.5L1.5 3.5C1.5 2.39544 2.39543 1.50001 3.5 1.50001L14.5 1.5C15.6046 1.5 16.5 2.39544 16.5 3.5L16.5 14.5C16.5 15.6046 15.6046 16.5 14.5 16.5L3.5 16.5Z" stroke="var(--stroke-0, black)" stroke-linecap="round" stroke-linejoin="round"/>
<path id="Vector 158" d="M1.5 13.875L3.46079 11.9142C4.24184 11.1332 5.50817 11.1332 6.28921 11.9142L10.875 16.5" stroke="var(--stroke-0, black)" stroke-linecap="round" stroke-linejoin="round"/>
<path id="Vector 159" d="M7.5 12.75L12.0858 8.16421C12.8668 7.38317 14.1332 7.38316 14.9142 8.16421L16.5 9.75" stroke="var(--stroke-0, black)" stroke-linecap="round" stroke-linejoin="round"/>
<circle id="Ellipse 89" cx="6" cy="6" r="1.5" stroke="var(--stroke-0, black)" stroke-linecap="round" stroke-linejoin="round"/>
</g>
</svg>
