<svg width="25" height="24" viewBox="0 0 25 24" fill="none" xmlns="http://www.w3.org/2000/svg">
<path d="M15.3438 9.75H3.34375C2.92954 9.75 2.59375 10.0858 2.59375 10.5V21.75C2.59375 22.1642 2.92954 22.5 3.34375 22.5H15.3438C15.758 22.5 16.0938 22.1642 16.0938 21.75V10.5C16.0938 10.0858 15.758 9.75 15.3438 9.75Z" stroke="black" stroke-width="1.5" stroke-linecap="round" stroke-linejoin="round"/>
<path d="M9.34375 18.75V14.25C9.34375 13.8358 9.00796 13.5 8.59375 13.5H7.09375C6.67954 13.5 6.34375 13.8358 6.34375 14.25V18.75" stroke="black" stroke-width="1.5" stroke-linecap="round" stroke-linejoin="round"/>
<path d="M12.3438 13.5V18.75" stroke="black" stroke-width="1.5" stroke-linecap="round" stroke-linejoin="round"/>
<path d="M6.34375 16.5H9.34375" stroke="black" stroke-width="1.5" stroke-linecap="round" stroke-linejoin="round"/>
<path d="M2.59375 6.75V2.25C2.59375 1.83579 2.92954 1.5 3.34375 1.5H21.3438C21.758 1.5 22.0938 1.83579 22.0938 2.25V21.75C22.0938 22.1642 21.758 22.5 21.3438 22.5H19.0938" stroke="black" stroke-width="1.5" stroke-linecap="round" stroke-linejoin="round"/>
<path d="M6.34375 9.75V8.25" stroke="black" stroke-width="1.5" stroke-linecap="round" stroke-linejoin="round"/>
<path d="M9.34375 9.75V8.25" stroke="black" stroke-width="1.5" stroke-linecap="round" stroke-linejoin="round"/>
<path d="M16.0938 12.75H17.5938M16.0938 15.75H17.5938M16.0938 18.75H17.5938" stroke="black" stroke-width="1.5" stroke-linecap="round" stroke-linejoin="round"/>
<path d="M12.3438 9.75V8.25" stroke="black" stroke-width="1.5" stroke-linecap="round" stroke-linejoin="round"/>
<path d="M18.3438 5.25H16.0938" stroke="black" stroke-width="1.5" stroke-linecap="round" stroke-linejoin="round"/>
</svg>
