<svg width="25" height="24" viewBox="0 0 25 24" fill="none" xmlns="http://www.w3.org/2000/svg">
<path d="M3.09375 18.75H22.5938V21.75C22.5938 22.1642 22.258 22.5 21.8438 22.5H3.84375C3.42954 22.5 3.09375 22.1642 3.09375 21.75V18.75Z" stroke="black" stroke-width="1.5" stroke-linecap="round" stroke-linejoin="round"/>
<path d="M3.09375 2.25C3.09375 1.83579 3.42954 1.5 3.84375 1.5H21.8438C22.258 1.5 22.5938 1.83579 22.5938 2.25V18.75H3.09375V2.25Z" stroke="black" stroke-width="1.5" stroke-linecap="round" stroke-linejoin="round"/>
<path d="M6.46875 15.375L9.46875 12.375L10.7812 13.6875M10.7812 13.6875L12.0938 15M10.7812 13.6875L15.4688 9L19.2188 12.75" stroke="black" stroke-width="1.5" stroke-linecap="round" stroke-linejoin="round"/>
<path d="M9.46875 9C10.5043 9 11.3438 8.16053 11.3438 7.125C11.3438 6.08947 10.5043 5.25 9.46875 5.25C8.43322 5.25 7.59375 6.08947 7.59375 7.125C7.59375 8.16053 8.43322 9 9.46875 9Z" stroke="black" stroke-width="1.5" stroke-linecap="round" stroke-linejoin="round"/>
</svg>
