<svg width="25" height="24" viewBox="0 0 25 24" fill="none" xmlns="http://www.w3.org/2000/svg">
<path d="M3.10938 18.75H9.10938L10.6094 19.5H15.1094L16.6094 18.75H22.6094V20.25C22.6094 21.0784 21.9378 21.75 21.1094 21.75H4.60938C3.78095 21.75 3.10938 21.0784 3.10938 20.25V18.75Z" stroke="black" stroke-width="1.5" stroke-linecap="round" stroke-linejoin="round"/>
<path d="M21.8594 18.75V15.75M3.85938 18.75V6C3.85938 5.58579 4.19517 5.25 4.60938 5.25H7.60938" stroke="black" stroke-width="1.5" stroke-linecap="round" stroke-linejoin="round"/>
<path d="M14.3594 4.49996C18.3426 4.49996 20.2364 3.54236 21.2739 2.55183C21.7952 2.05411 22.6094 2.2792 22.6094 2.99996V7.12496V12C22.6094 12.7207 21.7952 12.9458 21.2739 12.4481C20.2364 11.4576 18.3426 10.5 14.3594 10.5H12.8594C11.2025 10.5 9.85938 9.15681 9.85938 7.49996C9.85938 5.8431 11.2025 4.49996 12.8594 4.49996H14.3594Z" stroke="black" stroke-width="1.5" stroke-linecap="round" stroke-linejoin="round"/>
<path d="M15.1094 4.5V10.5V15.75H12.8594L12.1094 10.5" stroke="black" stroke-width="1.5" stroke-linecap="round" stroke-linejoin="round"/>
</svg>
