<svg width="25" height="24" viewBox="0 0 25 24" fill="none" xmlns="http://www.w3.org/2000/svg">
<path d="M11.3438 1.5C12.4688 7.125 5.71875 9 5.71875 15.375C5.71875 19.5 8.54261 22.2199 11.3438 22.5C9.09375 19.5 8.71875 14.25 11.7188 12.375C12.8438 19.5 20.511 18.9903 20.511 15.2619" stroke="black" stroke-width="1.5" stroke-linecap="round" stroke-linejoin="round"/>
<path d="M11.3438 1.5C13.9688 2.25 15.0938 3.75 15.0938 6C15.0938 7.83003 14.3174 8.6183 14.3438 9.75C14.3438 10.7357 14.9622 11.4159 15.8765 11.4159C16.9097 11.4159 17.3438 10.4578 17.3438 9.75C23.3438 13.5 19.9688 22.5 14.3438 22.5" stroke="black" stroke-width="1.5" stroke-linecap="round" stroke-linejoin="round"/>
</svg>
