<svg width="25" height="24" viewBox="0 0 25 24" fill="none" xmlns="http://www.w3.org/2000/svg">
<path d="M13.8125 22.5C14.848 22.5 15.6875 21.8284 15.6875 21C15.6875 20.1716 14.848 19.5 13.8125 19.5C12.777 19.5 11.9375 20.1716 11.9375 21C11.9375 21.8284 12.777 22.5 13.8125 22.5Z" stroke="black" stroke-width="1.5" stroke-linecap="round" stroke-linejoin="round"/>
<path d="M21.3125 21.75C22.348 21.75 23.1875 21.0784 23.1875 20.25C23.1875 19.4216 22.348 18.75 21.3125 18.75C20.277 18.75 19.4375 19.4216 19.4375 20.25C19.4375 21.0784 20.277 21.75 21.3125 21.75Z" stroke="black" stroke-width="1.5" stroke-linecap="round" stroke-linejoin="round"/>
<path d="M15.6875 21V13.125L23.1875 11.625V20.25" stroke="black" stroke-width="1.5" stroke-linecap="round" stroke-linejoin="round"/>
<path d="M15.6875 16.5L23.1875 15" stroke="black" stroke-width="1.5" stroke-linecap="round" stroke-linejoin="round"/>
<path d="M9.3125 21.9458C5.16916 20.5403 2.1875 16.6183 2.1875 12C2.1875 6.20101 6.88851 1.5 12.6875 1.5C17.3058 1.5 21.2278 4.48166 22.6333 8.625" stroke="black" stroke-width="1.5" stroke-linecap="round" stroke-linejoin="round"/>
<path d="M11.1875 5.41724C8.66393 5.98986 6.67739 7.97641 6.10476 10.5" stroke="black" stroke-width="1.5" stroke-linecap="round" stroke-linejoin="round"/>
<path d="M12.6875 15C11.0306 15 9.6875 13.6569 9.6875 12C9.6875 10.3431 11.0306 9 12.6875 9C13.5835 9 14.3878 9.39282 14.9375 10.0156C15.0126 10.1007 15.0829 10.19 15.148 10.2832" stroke="black" stroke-width="1.5" stroke-linecap="round" stroke-linejoin="round"/>
</svg>
