<svg width="25" height="24" viewBox="0 0 25 24" fill="none" xmlns="http://www.w3.org/2000/svg">
<g clip-path="url(#clip0_1_898)">
<path d="M1.67188 8.625V10.5C1.67188 12.5711 3.35081 14.25 5.42188 14.25H9.92188M22.6719 8.625V10.5C22.6719 12.5711 20.993 14.25 18.9219 14.25H14.4219" stroke="black" stroke-width="1.5" stroke-linecap="round" stroke-linejoin="round"/>
<path d="M21.1719 5.25H3.17188C2.34345 5.25 1.67188 5.92157 1.67188 6.75V21C1.67188 21.8284 2.34345 22.5 3.17188 22.5H21.1719C22.0003 22.5 22.6719 21.8284 22.6719 21V6.75C22.6719 5.92157 22.0003 5.25 21.1719 5.25Z" stroke="black" stroke-width="1.5" stroke-linecap="round" stroke-linejoin="round"/>
<path d="M8.42188 5.25V2.25C8.42188 1.83579 8.75767 1.5 9.17188 1.5H15.1719C15.5861 1.5 15.9219 1.83579 15.9219 2.25V5.25" stroke="black" stroke-width="1.5" stroke-linecap="round" stroke-linejoin="round"/>
<path d="M12.9219 12H11.4219C11.0077 12 10.6719 12.3358 10.6719 12.75V15.75C10.6719 16.1642 11.0077 16.5 11.4219 16.5H12.9219C13.3361 16.5 13.6719 16.1642 13.6719 15.75V12.75C13.6719 12.3358 13.3361 12 12.9219 12Z" stroke="black" stroke-width="1.5" stroke-linecap="round" stroke-linejoin="round"/>
</g>
<defs>
<clipPath id="clip0_1_898">
<rect width="24" height="24" fill="white" transform="translate(0.171875)"/>
</clipPath>
</defs>
</svg>
