<svg width="25" height="24" viewBox="0 0 25 24" fill="none" xmlns="http://www.w3.org/2000/svg">
<path d="M20.2188 1.5C20.965 2.49495 21.8489 3.37879 22.8438 4.125C21.8489 4.87121 20.965 5.75505 20.2188 6.75C19.4725 5.75505 18.5886 4.87121 17.5938 4.125C18.5886 3.37879 19.4725 2.49495 20.2188 1.5Z" stroke="black" stroke-width="1.5" stroke-linecap="round" stroke-linejoin="round"/>
<path d="M14.5938 7.875C15.3684 9.52395 16.6947 10.8504 18.3438 11.625C16.6947 12.3996 15.3684 13.726 14.5938 15.375C13.8191 13.726 12.4928 12.3996 10.8438 11.625C12.4928 10.8504 13.8191 9.52395 14.5938 7.875Z" stroke="black" stroke-width="1.5" stroke-linecap="round" stroke-linejoin="round"/>
<path d="M12.3438 21.75C8.96875 19.875 1.84375 14.625 1.84375 9C1.84375 5.68629 4.53004 3 7.84375 3C9.63579 3 11.2443 3.78563 12.3438 5.03126" stroke="black" stroke-width="1.5" stroke-linecap="round" stroke-linejoin="round"/>
<path d="M12.3438 21.75C15.7188 19.875 22.8438 14.625 22.8438 9C22.8438 8.746 22.8279 8.4957 22.7973 8.25" stroke="black" stroke-width="1.5" stroke-linecap="round" stroke-linejoin="round"/>
<path d="M12.3438 5.03128C12.955 4.33872 13.7236 3.78835 14.5938 3.43616" stroke="black" stroke-width="1.5" stroke-linecap="round" stroke-linejoin="round"/>
<path d="M8.21876 6.375C6.6889 6.375 5.42651 7.52013 5.24197 9" stroke="black" stroke-width="1.5" stroke-linecap="round" stroke-linejoin="round"/>
</svg>
