<svg width="25" height="24" viewBox="0 0 25 24" fill="none" xmlns="http://www.w3.org/2000/svg">
<path d="M13.0469 18H3.29688C2.88267 18 2.54688 17.6642 2.54688 17.25V3C2.54688 2.58579 2.88267 2.25 3.29688 2.25H21.2969C21.7111 2.25 22.0469 2.58579 22.0469 3V14.25" stroke="black" stroke-width="1.5" stroke-linecap="round" stroke-linejoin="round"/>
<path d="M10.7969 18L10.0469 21.75" stroke="black" stroke-width="1.5" stroke-linecap="round" stroke-linejoin="round"/>
<path d="M13.0469 21.75H8.54688" stroke="black" stroke-width="1.5" stroke-linecap="round" stroke-linejoin="round"/>
<path d="M13.0469 7.5L11.5469 12.75" stroke="black" stroke-width="1.5" stroke-linecap="round" stroke-linejoin="round"/>
<path d="M8.68336 12.5115L6.29688 10.125L8.68336 7.73853" stroke="black" stroke-width="1.5" stroke-linecap="round" stroke-linejoin="round"/>
<path d="M16.0469 12.5115L18.4334 10.125L16.0469 7.73853" stroke="black" stroke-width="1.5" stroke-linecap="round" stroke-linejoin="round"/>
<path d="M19.0469 15.75L22.0469 17.25V21L19.0469 22.5L16.0469 21V17.25L19.0469 15.75Z" stroke="black" stroke-width="1.5" stroke-linecap="round" stroke-linejoin="round"/>
<path d="M19.7969 19.125C19.7969 19.5392 19.4611 19.875 19.0469 19.875C18.6327 19.875 18.2969 19.5392 18.2969 19.125C18.2969 18.7108 18.6327 18.375 19.0469 18.375C19.4611 18.375 19.7969 18.7108 19.7969 19.125Z" fill="#5A5A5A"/>
</svg>
