<svg width="25" height="24" viewBox="0 0 25 24" fill="none" xmlns="http://www.w3.org/2000/svg">
<path d="M14.375 16.5V18.75H16.625L21.875 13.5C22.4963 12.8787 22.4963 11.8713 21.875 11.25C21.2537 10.6287 20.2463 10.6287 19.625 11.25L14.375 16.5Z" stroke="black" stroke-width="1.5" stroke-linecap="round" stroke-linejoin="round"/>
<path d="M20.375 7.875V4.81066C20.375 4.61175 20.296 4.42098 20.1553 4.28033L17.5947 1.71967C17.454 1.57902 17.2633 1.5 17.0643 1.5H4.625C4.21079 1.5 3.875 1.83579 3.875 2.25V21.75C3.875 22.1642 4.21079 22.5 4.625 22.5H19.625C20.0392 22.5 20.375 22.1642 20.375 21.75V19.125" stroke="black" stroke-width="1.5" stroke-linecap="round" stroke-linejoin="round"/>
<path d="M11.375 18.75H7.625" stroke="black" stroke-width="1.5" stroke-linecap="round" stroke-linejoin="round"/>
<path d="M7.625 6H16.625" stroke="black" stroke-width="1.5" stroke-linecap="round" stroke-linejoin="round"/>
<path d="M7.625 9H16.625" stroke="black" stroke-width="1.5" stroke-linecap="round" stroke-linejoin="round"/>
<path d="M7.625 12H13.625" stroke="black" stroke-width="1.5" stroke-linecap="round" stroke-linejoin="round"/>
</svg>
