<svg width="25" height="24" viewBox="0 0 25 24" fill="none" xmlns="http://www.w3.org/2000/svg">
<path d="M15.1535 3.75H3.90349C3.48928 3.75 3.15349 4.08579 3.15349 4.5V17.25C3.15349 17.6642 3.48928 18 3.90349 18H21.9035C22.3177 18 22.6535 17.6642 22.6535 17.25V9" stroke="black" stroke-width="1.5" stroke-linecap="round" stroke-linejoin="round"/>
<path d="M12.9035 3.75V2.25" stroke="black" stroke-width="1.5" stroke-linecap="round" stroke-linejoin="round"/>
<path d="M12.9035 21.75V18M8.40349 21.75L9.90349 18M15.9035 18L17.4035 21.75" stroke="black" stroke-width="1.5" stroke-linecap="round" stroke-linejoin="round"/>
<path d="M14.4035 8.25005V10.5H16.6535L21.9035 5.25005C22.5248 4.62873 22.5248 3.62137 21.9035 3.00005C21.2822 2.37873 20.2748 2.37873 19.6535 3.00005L14.4035 8.25005Z" stroke="black" stroke-width="1.5" stroke-linecap="round" stroke-linejoin="round"/>
<path d="M6.15349 11.0156L6.4386 10.8868C7.48559 10.4135 8.62746 11.3276 8.39492 12.4528C8.10905 13.836 9.81249 14.7301 10.7885 13.7091L12.1535 12.2812" stroke="black" stroke-width="1.5" stroke-linecap="round" stroke-linejoin="round"/>
</svg>
