<svg width="25" height="24" viewBox="0 0 25 24" fill="none" xmlns="http://www.w3.org/2000/svg">
<path d="M10.0806 22.5609L12.3438 21.6445L14.6069 22.5609C14.7098 22.6026 14.8207 22.522 14.8129 22.4113L14.6406 19.9757L16.2115 18.1066C16.2829 18.0216 16.2406 17.8912 16.1329 17.8645L13.7633 17.2757L12.4711 15.204C12.4123 15.1099 12.2753 15.1099 12.2165 15.204L10.9243 17.2756L8.55467 17.8645C8.44698 17.8912 8.40462 18.0216 8.47601 18.1066L10.0469 19.9757L9.87471 22.4113C9.86688 22.522 9.97778 22.6025 10.0806 22.5609Z" stroke="black" stroke-width="1.5"/>
<path d="M7.09375 22.5H6.34375C5.51532 22.5 4.84375 21.8284 4.84375 21V17.25C4.84375 14.3505 7.19426 12 10.0938 12H14.5938C17.4932 12 19.8438 14.3505 19.8438 17.25V21C19.8438 21.8284 19.1722 22.5 18.3438 22.5H17.5938" stroke="black" stroke-width="1.5" stroke-linecap="round" stroke-linejoin="round"/>
<path d="M16.0938 5.25C16.0938 7.32107 14.4148 9 12.3438 9C10.2727 9 8.59375 7.32107 8.59375 5.25C8.59375 3.17893 10.2727 1.5 12.3438 1.5C14.4148 1.5 16.0938 3.17893 16.0938 5.25Z" stroke="black" stroke-width="1.5" stroke-linecap="round" stroke-linejoin="round"/>
</svg>
