<svg width="25" height="24" viewBox="0 0 25 24" fill="none" xmlns="http://www.w3.org/2000/svg">
<path d="M15.9688 22.5C19.9038 22.5 23.0938 19.31 23.0938 15.375C23.0938 11.44 19.9038 8.25 15.9688 8.25C12.0337 8.25 8.84375 11.44 8.84375 15.375C8.84375 19.31 12.0337 22.5 15.9688 22.5Z" stroke="black" stroke-width="1.5" stroke-linecap="round" stroke-linejoin="round"/>
<path d="M15.5938 8.25V15.3936L20.0938 20.25" stroke="black" stroke-width="1.5" stroke-linecap="round" stroke-linejoin="round"/>
<path d="M16.3438 15L22.3438 13.5" stroke="black" stroke-width="1.5" stroke-linecap="round" stroke-linejoin="round"/>
<path d="M23.0938 8.25V6C23.0938 5.58579 22.758 5.25 22.3438 5.25H15.9045C15.7055 5.25 15.5148 5.17098 15.3741 5.03033L12.0634 1.71967C11.9227 1.57902 11.732 1.5 11.533 1.5H2.84375C2.42954 1.5 2.09375 1.83579 2.09375 2.25V21.75C2.09375 22.1642 2.42954 22.5 2.84375 22.5H8.84375" stroke="black" stroke-width="1.5" stroke-linecap="round" stroke-linejoin="round"/>
<path d="M12.5938 2.25H22.3438C22.758 2.25 23.0938 2.58579 23.0938 3V5.625" stroke="black" stroke-width="1.5" stroke-linecap="round" stroke-linejoin="round"/>
</svg>
