<svg width="24" height="24" viewBox="0 0 24 24" fill="none" xmlns="http://www.w3.org/2000/svg">
<path fill-rule="evenodd" clip-rule="evenodd" d="M2.55975 7.91087C0.672024 8.54253 0.604131 11.1876 2.45698 11.9153L9.20931 14.5671C9.31961 14.6104 9.4069 14.6977 9.45022 14.808L12.102 21.5603C12.8297 23.4132 15.4748 23.3453 16.1064 21.4575L21.5625 5.15188C22.1204 3.48444 20.5328 1.89685 18.8654 2.45479L2.55975 7.91087ZM3.08016 10.3285C2.7096 10.1829 2.72317 9.65391 3.10072 9.52757L18.1176 4.50275L9.69432 12.926L3.08016 10.3285ZM10.9795 14.0518C11.0001 14.0953 11.0193 14.1397 11.037 14.1848L13.6888 20.9371C13.8344 21.3077 14.3634 21.2941 14.4897 20.9166L19.7071 5.32412L10.9795 14.0518Z" fill="black"/>
</svg>
